<?xml version="1.0" encoding="iso-8859-1"?>
<!-- Generator: Adobe Illustrator 19.0.0, SVG Export Plug-In . SVG Version: 6.00 Build 0)  -->
<svg version="1.1" id="Capa_1" xmlns="http://www.w3.org/2000/svg" xmlns:xlink="http://www.w3.org/1999/xlink" x="0px" y="0px"
	 viewBox="0 0 469.333 469.333" style="enable-background:new 0 0 469.333 469.333;" xml:space="preserve">
<path style="fill:#303C42;" d="M426.667,0h-384C19.135,0,0,19.135,0,42.667v384c0,23.531,19.135,42.667,42.667,42.667h384
	c23.531,0,42.667-19.135,42.667-42.667v-384C469.333,19.135,450.198,0,426.667,0z"/>
<g>
	<path style="fill:#E57373;" d="M448,42.667v106.667H320v-128h106.667C438.427,21.333,448,30.906,448,42.667z"/>
	<rect x="170.667" y="170.667" style="fill:#E57373;" width="277.333" height="128"/>
	<rect x="21.333" y="170.667" style="fill:#E57373;" width="128" height="128"/>
	<path style="fill:#E57373;" d="M42.667,21.333h256v128H21.333V42.667C21.333,30.906,30.906,21.333,42.667,21.333z"/>
	<path style="fill:#E57373;" d="M21.333,426.667V320h277.333v128h-256C30.906,448,21.333,438.427,21.333,426.667z"/>
	<path style="fill:#E57373;" d="M426.667,448H320V320h128v106.667C448,438.427,438.427,448,426.667,448z"/>
</g>
<linearGradient id="SVGID_1_" gradientUnits="userSpaceOnUse" x1="-68.6888" y1="619.0512" x2="-43.3842" y2="607.2509" gradientTransform="matrix(21.3333 0 0 -21.3333 1430.1112 13315.2227)">
	<stop  offset="0" style="stop-color:#FFFFFF;stop-opacity:0.2"/>
	<stop  offset="1" style="stop-color:#FFFFFF;stop-opacity:0"/>
</linearGradient>
<path style="fill:url(#SVGID_1_);" d="M426.667,0h-384C19.135,0,0,19.135,0,42.667v384c0,23.531,19.135,42.667,42.667,42.667h384
	c23.531,0,42.667-19.135,42.667-42.667v-384C469.333,19.135,450.198,0,426.667,0z"/>
<g>
</g>
<g>
</g>
<g>
</g>
<g>
</g>
<g>
</g>
<g>
</g>
<g>
</g>
<g>
</g>
<g>
</g>
<g>
</g>
<g>
</g>
<g>
</g>
<g>
</g>
<g>
</g>
<g>
</g>
</svg>
